<?xml version="1.0" encoding="utf-8"?>
<!-- Generator: Adobe Illustrator 16.0.0, SVG Export Plug-In . SVG Version: 6.00 Build 0)  -->
<!DOCTYPE svg PUBLIC "-//W3C//DTD SVG 1.1//EN" "http://www.w3.org/Graphics/SVG/1.1/DTD/svg11.dtd">
<svg version="1.1" id="Layer_1" xmlns="http://www.w3.org/2000/svg" xmlns:xlink="http://www.w3.org/1999/xlink" x="0px" y="0px"
	 width="270px" height="320px" viewBox="0 0 270 320" enable-background="new 0 0 270 320" xml:space="preserve">
<g>
	<path id="Oval_20_copy_4_5_" fill="#FC3768" d="M43.056,239.811c-20.252,0-36.742,16.457-36.742,36.771
		c0,20.267,16.438,36.767,36.742,36.767h183.892c20.251,0,36.739-16.459,36.739-36.767c0-17.409-12.101-32.014-28.368-35.81
		c0.521-3.307,0.798-6.69,0.798-10.15c0-35.541-28.807-64.342-64.348-64.342c-29.069,0-53.623,19.264-61.626,45.73
		c-7.054-5.607-15.989-8.962-25.703-8.962c-21.296,0-38.824,16.082-41.118,36.769h-0.266V239.811z"/>
</g>
<g>
	<path id="Oval_20_copy_4_4_" fill="none" stroke="#999999" stroke-width="2" stroke-miterlimit="10" d="M43.055,79.997
		c-20.252,0-36.742,16.457-36.742,36.771c0,20.266,16.439,36.766,36.742,36.766h183.893c20.252,0,36.74-16.459,36.74-36.766
		c0-17.409-12.102-32.014-28.369-35.811c0.521-3.307,0.799-6.689,0.799-10.15c0-35.54-28.807-64.342-64.348-64.342
		c-29.07,0-53.623,19.264-61.627,45.73c-7.053-5.607-15.99-8.961-25.703-8.961c-21.297,0-38.824,16.082-41.119,36.768h-0.266V79.997
		z"/>
	<g>
		
			<line fill="none" stroke="#999999" stroke-width="2" stroke-miterlimit="10" x1="139.596" y1="61.127" x2="129.611" y2="127.127"/>
		
			<line fill="none" stroke="#999999" stroke-width="2" stroke-miterlimit="10" x1="159.396" y1="61.127" x2="149.412" y2="127.127"/>
		<line fill="none" stroke="#999999" stroke-width="2" stroke-miterlimit="10" x1="168.334" y1="84.48" x2="122.365" y2="84.48"/>
		<line fill="none" stroke="#999999" stroke-width="2" stroke-miterlimit="10" x1="165.797" y1="104.28" x2="120.334" y2="104.28"/>
	</g>
</g>
<g>
	<g>
		
			<line fill="none" stroke="#FFFFFF" stroke-width="2" stroke-linecap="round" stroke-miterlimit="10" x1="139.596" y1="220.94" x2="129.611" y2="286.94"/>
		
			<line fill="none" stroke="#FFFFFF" stroke-width="2" stroke-linecap="round" stroke-miterlimit="10" x1="159.396" y1="220.94" x2="149.412" y2="286.94"/>
		
			<line fill="none" stroke="#FFFFFF" stroke-width="2" stroke-linecap="round" stroke-miterlimit="10" x1="168.334" y1="244.294" x2="122.365" y2="244.294"/>
		
			<line fill="none" stroke="#FFFFFF" stroke-width="2" stroke-linecap="round" stroke-miterlimit="10" x1="165.797" y1="264.094" x2="120.334" y2="264.094"/>
	</g>
</g>
</svg>
