<?xml version="1.0" encoding="utf-8"?>
<!-- Generator: Adobe Illustrator 16.0.0, SVG Export Plug-In . SVG Version: 6.00 Build 0)  -->
<!DOCTYPE svg PUBLIC "-//W3C//DTD SVG 1.1//EN" "http://www.w3.org/Graphics/SVG/1.1/DTD/svg11.dtd">
<svg version="1.1" id="Layer_1" xmlns="http://www.w3.org/2000/svg" xmlns:xlink="http://www.w3.org/1999/xlink" x="0px" y="0px"
	 width="270px" height="320px" viewBox="0 0 270 320" enable-background="new 0 0 270 320" xml:space="preserve">
<g>
	<path fill="none" stroke="#999999" stroke-width="2.0263" stroke-miterlimit="10" d="M187.01,71.875
		c-0.322-0.408-0.832-0.614-1.348-0.54c-0.307,0.045-0.69,0.119-1.19,0.229c-0.465,0.101-1.029,0.233-1.664,0.391
		c0.243-0.554,0.447-1.131,0.629-1.733c0.297-0.99,0.545-2.043,0.801-3.16c0.127-0.559-0.082-1.141-0.539-1.49
		c-0.462-0.347-1.081-0.39-1.585-0.112c-2.267,1.251-3.962,2.046-5.431,2.565c-1.236,0.436-2.316,0.685-3.511,0.854
		c-1.398-1.316-2.97-2.332-4.651-3.025c-1.898-0.787-3.935-1.171-6.012-1.171c-2.487,0-5.036,0.546-7.523,1.597l0,0
		c-1.215,0.51-2.339,1.268-3.36,2.193c-1.522,1.391-2.81,3.161-3.73,5.136c-0.921,1.976-1.476,4.154-1.478,6.365
		c0,0.231,0.009,0.467,0.022,0.696c-0.04-0.01-0.075-0.02-0.115-0.029c-2.643-0.701-6.715-2.09-10.76-3.893
		c-1.656-0.734-3.948-2.207-6.187-4.1c-2.24-1.893-4.444-4.215-6.041-6.631c-0.241-0.363-0.634-0.6-1.069-0.645
		c-0.434-0.045-0.864,0.109-1.173,0.418c-0.692,0.689-1.282,1.329-1.783,1.967c-0.754,0.954-1.313,1.921-1.69,2.973
		s-0.577,2.16-0.695,3.434c-0.084,0.856-0.137,1.778-0.137,2.729c0.004,2.102,0.261,4.355,1.16,6.396
		c-0.684,0.082-1.231,0.639-1.279,1.34c-0.037,0.549-0.055,1.085-0.055,1.611c-0.004,4.739,1.508,8.596,3.878,11.273
		c0.231,0.263,0.475,0.508,0.72,0.75c0,0.01-0.002,0.02-0.002,0.032c-0.002,0.095-0.004,0.188-0.004,0.282
		c-0.002,1.809,0.467,3.508,1.261,5.008c1.188,2.256,3.079,4.084,5.258,5.42c0.802,0.49,1.646,0.914,2.517,1.271
		c-3.664,1.169-6.686,1.437-9.175,1.439c-1.103,0-2.107-0.055-3.022-0.107c-0.918-0.058-1.748-0.117-2.526-0.117
		c-0.187,0-0.368,0.004-0.548,0.012c-0.441,0.021-0.84,0.231-1.101,0.582s-0.353,0.794-0.249,1.219
		c0.432,1.755,1.474,3.351,2.91,4.761c2.171,2.113,5.26,3.854,8.974,5.098c3.715,1.238,8.055,1.973,12.715,1.973
		c6.789,0,14.269-1.561,21.4-5.44c6.514-3.552,11.934-9.368,15.195-15.853c1.125-2.241,2.356-5.14,3.312-8.219
		c0.96-3.08,1.655-6.33,1.657-9.33c0-1.02-0.086-2.01-0.273-2.957c0.825-0.594,1.562-1.17,2.228-1.754
		c1.322-1.16,2.36-2.357,3.228-3.7c0.868-1.346,1.563-2.823,2.254-4.569C187.412,72.83,187.335,72.284,187.01,71.875z"/>
	<path id="Oval_20_copy_4_2_" fill="none" stroke="#999999" stroke-width="2.0263" stroke-miterlimit="10" d="M41.848,79.998
		c-20.519,0-37.226,16.672-37.226,37.253c0,20.532,16.656,37.249,37.226,37.249h186.307c20.519,0,37.224-16.675,37.224-37.249
		c0-17.637-12.261-32.435-28.741-36.279c0.527-3.35,0.809-6.779,0.809-10.285c0-36.006-29.186-65.187-65.192-65.187
		c-29.452,0-54.329,19.518-62.438,46.331c-7.146-5.682-16.199-9.08-26.04-9.08c-21.576,0-39.334,16.294-41.659,37.252h-0.269V79.998
		z"/>
</g>
<g>
	<path id="Oval_20_copy_4_5_" fill="#FC3768" d="M43.056,239.811c-20.252,0-36.742,16.457-36.742,36.771
		c0,20.267,16.438,36.767,36.742,36.767h183.892c20.251,0,36.739-16.459,36.739-36.767c0-17.409-12.101-32.014-28.368-35.81
		c0.521-3.307,0.798-6.69,0.798-10.15c0-35.541-28.807-64.342-64.348-64.342c-29.069,0-53.623,19.264-61.626,45.73
		c-7.054-5.607-15.989-8.962-25.703-8.962c-21.296,0-38.824,16.082-41.118,36.769h-0.266V239.811z"/>
	<path fill="#FFFFFF" d="M186.335,231.794c-0.318-0.403-0.821-0.606-1.329-0.534c-0.303,0.045-0.683,0.117-1.176,0.227
		c-0.459,0.1-1.017,0.23-1.643,0.387c0.239-0.547,0.441-1.117,0.621-1.713c0.293-0.977,0.536-2.016,0.791-3.117
		c0.125-0.553-0.083-1.127-0.534-1.471c-0.454-0.343-1.065-0.385-1.563-0.111c-2.237,1.235-3.91,2.02-5.36,2.531
		c-1.22,0.432-2.287,0.676-3.465,0.843c-1.381-1.3-2.931-2.302-4.591-2.985c-1.874-0.777-3.883-1.156-5.934-1.156
		c-2.456,0-4.971,0.539-7.427,1.576l0,0c-1.198,0.504-2.308,1.252-3.315,2.164c-1.504,1.373-2.774,3.121-3.684,5.07
		c-0.908,1.949-1.455,4.1-1.457,6.281c0,0.229,0.008,0.461,0.021,0.688c-0.039-0.011-0.074-0.02-0.113-0.03
		c-2.609-0.691-6.629-2.062-10.621-3.842c-1.634-0.725-3.896-2.177-6.104-4.047c-2.212-1.867-4.388-4.16-5.964-6.544
		c-0.237-0.358-0.624-0.593-1.054-0.636c-0.429-0.045-0.854,0.107-1.158,0.412c-0.685,0.681-1.266,1.312-1.761,1.941
		c-0.744,0.942-1.296,1.896-1.667,2.934c-0.374,1.039-0.57,2.133-0.688,3.389c-0.081,0.846-0.135,1.756-0.135,2.695
		c0.004,2.073,0.258,4.297,1.146,6.312c-0.675,0.081-1.215,0.631-1.263,1.322c-0.036,0.543-0.055,1.071-0.055,1.591
		c-0.003,4.677,1.488,8.484,3.828,11.128c0.229,0.259,0.469,0.5,0.711,0.738c0,0.011-0.002,0.02-0.002,0.033
		c-0.002,0.094-0.004,0.186-0.004,0.277c-0.001,1.787,0.461,3.463,1.244,4.943c1.173,2.228,3.039,4.031,5.189,5.351
		c0.792,0.483,1.626,0.902,2.484,1.254c-3.616,1.153-6.599,1.418-9.056,1.421c-1.089,0-2.08-0.055-2.983-0.107
		c-0.905-0.057-1.726-0.115-2.494-0.115c-0.184,0-0.363,0.004-0.54,0.012c-0.436,0.021-0.829,0.229-1.087,0.574
		c-0.258,0.348-0.347,0.783-0.246,1.204c0.426,1.731,1.455,3.307,2.874,4.699c2.142,2.085,5.191,3.804,8.857,5.031
		c3.666,1.223,7.949,1.946,12.549,1.946c6.7,0,14.084-1.541,21.123-5.369c6.429-3.506,11.779-9.247,14.998-15.647
		c1.111-2.212,2.325-5.073,3.27-8.112c0.947-3.04,1.632-6.248,1.635-9.209c0-1.006-0.085-1.984-0.27-2.92
		c0.813-0.584,1.54-1.154,2.199-1.73c1.304-1.145,2.33-2.326,3.185-3.652c0.857-1.328,1.543-2.787,2.226-4.509
		C186.732,232.736,186.655,232.197,186.335,231.794z"/>
</g>
</svg>
